<svg width="27" height="41" viewBox="0 0 27 41" fill="none" xmlns="http://www.w3.org/2000/svg">
<path d="M19.7071 0.292884C19.3166 -0.0976406 18.6834 -0.0976406 18.2929 0.292884L11.9289 6.65684C11.5384 7.04737 11.5384 7.68053 11.9289 8.07106C12.3195 8.46158 12.9526 8.46158 13.3431 8.07106L19 2.4142L24.6569 8.07106C25.0474 8.46158 25.6805 8.46158 26.0711 8.07106C26.4616 7.68053 26.4616 7.04737 26.0711 6.65684L19.7071 0.292884ZM20 27.6449V0.99999H18V27.6449H20Z" fill="white"/>
<path d="M7.29289 40.7071C7.68342 41.0976 8.31658 41.0976 8.70711 40.7071L15.0711 34.3432C15.4616 33.9526 15.4616 33.3195 15.0711 32.9289C14.6805 32.5384 14.0474 32.5384 13.6569 32.9289L8 38.5858L2.34315 32.9289C1.95262 32.5384 1.31946 32.5384 0.928932 32.9289C0.538408 33.3195 0.538408 33.9526 0.928932 34.3432L7.29289 40.7071ZM7 13.3551L7 40H9L9 13.3551H7Z" fill="white"/>
</svg>
