<svg width="24" height="24" xmlns="http://www.w3.org/2000/svg">

 <g>
  <title>background</title>
  <rect fill="none" id="canvas_background" height="402" width="582" y="-1" x="-1"/>
 </g>
 <g>
  <title>Layer 1</title>
  <path id="svg_2" fill="#FFFFFF" d="m19,6.099702c-0.1,0 -0.2,0 -0.3,0c-0.9,-2.9 -3.5,-5 -6.7,-5c-2.4,0 -4.5,1.2 -5.8,3c0,0 -0.1,0 -0.2,0c-3.3,0 -6,2.7 -6,6s2.7,6 6,6l13,0c2.8,0 5,-2.2 5,-5s-2.2,-5 -5,-5zm0,8l-13,0c-2.2,0 -4,-1.8 -4,-4c0,-0.3 0,-0.5 0.1,-0.8c0,-0.1 0,-0.2 0.1,-0.2c0,-0.2 0.1,-0.3 0.1,-0.5c0,-0.1 0.1,-0.2 0.1,-0.3c0.1,-0.1 0.1,-0.2 0.2,-0.3c0.1,-0.1 0.1,-0.2 0.2,-0.3c0.1,-0.1 0.2,-0.2 0.3,-0.3c0,-0.1 0.1,-0.2 0.2,-0.3c0.1,0 0.2,-0.1 0.3,-0.2c0.1,-0.1 0.2,-0.2 0.3,-0.2c0.1,0 0.2,-0.1 0.2,-0.1c0.1,-0.1 0.3,-0.1 0.4,-0.2c0.1,0 0.1,0 0.2,-0.1c0.5,-0.1 0.9,-0.2 1.3,-0.2c0.5,0 0.9,0.1 1.3,0.2c0.7,-1.7 2.2,-3 4.1,-3.2c0,0 0.1,0 0.1,0c0.2,0 0.3,0 0.5,0c1.1,0 2.1,0.4 2.9,1c0,0 0,0 0,0c0.9,0.6 1.5,1.5 1.8,2.6c0.1,0.2 0.1,0.4 0.2,0.6c0.1,0.3 0.1,0.5 0.1,0.8l2,0c1.7,0 3,1.3 3,3s-1.3,3 -3,3z"/>
  <path id="svg_4" fill="#FFFFFF" d="m11.043988,19.099702c-0.6,0 -1,0.4 -1,1l0,2c0,0.6 0.4,1 1,1s1,-0.4 1,-1l0,-2c0,-0.6 -0.4,-1 -1,-1z"/>
  <path id="svg_5" fill="#FFFFFF" d="m7.043988,17.099702c-0.6,0 -1,0.4 -1,1l0,2c0,0.6 0.4,1 1,1s1,-0.4 1,-1l0,-2c0,-0.6 -0.4,-1 -1,-1z"/>
  <path id="svg_6" fill="#FFFFFF" d="m19.043988,19.099702c-0.6,0 -1,0.4 -1,1l0,2c0,0.6 0.4,1 1,1s1,-0.4 1,-1l0,-2c0,-0.6 -0.4,-1 -1,-1z"/>
  <path id="svg_7" fill="#FFFFFF" d="m15.043988,17.099702c-0.6,0 -1,0.4 -1,1l0,2c0,0.6 0.4,1 1,1s1,-0.4 1,-1l0,-2c0,-0.6 -0.4,-1 -1,-1z"/>
 </g>
</svg>