<svg width="75" height="48" viewBox="0 0 75 48" fill="none" xmlns="http://www.w3.org/2000/svg">
<path d="M54 12L36 33H15L25.5 12H54Z" stroke="black" stroke-width="2" stroke-miterlimit="10" stroke-linecap="round" stroke-linejoin="round"/>
<path d="M43.5 1.49999C45 2.99999 45.024 2.99999 52.5 2.99999C52.536 3.51899 54.24 16.356 60 33" stroke="black" stroke-width="2" stroke-miterlimit="10" stroke-linecap="round" stroke-linejoin="round"/>
<path d="M22.0095 5.0475L36 33" stroke="black" stroke-width="2" stroke-miterlimit="10" stroke-linecap="round" stroke-linejoin="round"/>
<path d="M30 3.8625C30 4.938 28.3305 5.919 24.4905 5.919C20.511 5.919 16.5 9.951 16.5 5.139C16.5 3.7485 16.8135 3 18.519 3C19.194 3 28.182 3 28.182 3C29.2665 3 30 3.0315 30 3.8625Z" fill="black"/>
<path d="M15 46.5C22.4558 46.5 28.5 40.4558 28.5 33C28.5 25.5442 22.4558 19.5 15 19.5C7.54414 19.5 1.49998 25.5442 1.49998 33C1.49998 40.4558 7.54414 46.5 15 46.5Z" stroke="black" stroke-width="2" stroke-miterlimit="10" stroke-linecap="round" stroke-linejoin="round"/>
<path d="M60 46.5C67.4558 46.5 73.5 40.4558 73.5 33C73.5 25.5442 67.4558 19.5 60 19.5C52.5442 19.5 46.5 25.5442 46.5 33C46.5 40.4558 52.5442 46.5 60 46.5Z" stroke="black" stroke-width="1.9999" stroke-miterlimit="10" stroke-linecap="round" stroke-linejoin="round"/>
</svg>
