<svg width="179" height="120" viewBox="0 0 179 120" fill="none" xmlns="http://www.w3.org/2000/svg">
<path d="M171.281 92.1723C171.281 103.209 162.112 112.242 150.805 112.242H40.9755C40.8853 112.242 41.0657 112.242 40.9755 112.242C22.6157 112.242 8 97.6337 8 79.7132C8 61.7926 22.8815 47.2258 41.2412 47.2258C42.8422 47.2258 44.4162 47.3142 45.9588 47.5322C51.6496 24.8459 72.621 8 97.6185 8C126.993 8 150.805 31.2365 150.805 59.9084C150.805 64.1291 150.289 68.2274 149.31 72.1576C149.805 72.1214 150.299 72.1457 150.805 72.1457C162.112 72.1457 171.281 81.1356 171.281 92.1723Z" stroke="#FFFFFF" stroke-width="15" stroke-miterlimit="10"/>
</svg>
