<svg width="25" height="25" viewBox="0 0 25 25" fill="none" xmlns="http://www.w3.org/2000/svg">
<path d="M22.4497 21.4497C21.7161 22.1834 20.5269 22.1834 19.7932 21.4497L16.4783 18.1348C15.1154 19.0091 13.5044 19.53 11.765 19.53C6.92457 19.53 3 15.606 3 10.765C3 5.92399 6.92457 2 11.765 2C16.6061 2 20.53 5.92391 20.53 10.765C20.53 12.5038 20.0085 14.1154 19.1348 15.4789L22.4497 18.7938C23.1834 19.5275 23.1834 20.7161 22.4497 21.4497ZM11.765 4.50426C8.30754 4.50426 5.5043 7.30688 5.5043 10.7649C5.5043 14.223 8.30758 17.0256 11.765 17.0256C15.223 17.0256 18.0257 14.223 18.0257 10.7649C18.0257 7.30688 15.223 4.50426 11.765 4.50426Z" fill="white"/>
</svg>