<svg width="75" height="75" viewBox="0 0 75 75" fill="none" xmlns="http://www.w3.org/2000/svg">
<path d="M63.9146 10.9927C49.2576 -3.66424 25.557 -3.66424 10.9 10.9927C-3.75695 25.6497 -3.75695 49.3503 10.9 64.0073C25.557 78.6642 49.2576 78.6642 63.9146 64.0073C78.5715 49.3503 78.5715 25.6497 63.9146 10.9927ZM59.5487 59.6414C47.3865 71.8035 27.4281 71.8035 15.2659 59.6414C3.10375 47.4792 3.10375 27.5208 15.2659 15.3586C27.4281 3.19647 47.3865 3.19647 59.5487 15.3586C71.7108 27.5208 71.7108 47.4792 59.5487 59.6414Z" fill="black"/>
<path d="M37.4073 46.8555C33.9769 46.8555 31.1703 49.6622 31.1703 53.0925C31.1703 56.5229 33.9769 59.3295 37.4073 59.3295C40.8376 59.3295 43.6443 56.5229 43.6443 53.0925C43.6443 49.6622 40.8376 46.8555 37.4073 46.8555ZM37.4073 56.211C35.5362 56.211 34.2888 54.9636 34.2888 53.0925C34.2888 51.2214 35.5362 49.974 37.4073 49.974C39.2784 49.974 40.5258 51.2214 40.5258 53.0925C40.5258 54.9636 39.2784 56.211 37.4073 56.211Z" fill="black"/>
<path d="M37.4073 15.6705C33.9769 15.6705 31.1703 18.4771 31.1703 21.9075V37.5C31.1703 40.9304 33.9769 43.737 37.4073 43.737C40.8376 43.737 43.6443 40.9304 43.6443 37.5V21.9075C43.6443 18.4771 40.8376 15.6705 37.4073 15.6705ZM40.5258 37.5C40.5258 39.3711 39.2784 40.6185 37.4073 40.6185C35.5362 40.6185 34.2888 39.3711 34.2888 37.5V21.9075C34.2888 20.0364 35.5362 18.789 37.4073 18.789C39.2784 18.789 40.5258 20.0364 40.5258 21.9075V37.5Z" fill="black"/>
</svg>
