<?xml version="1.0" ?><!DOCTYPE svg  PUBLIC '-//W3C//DTD SVG 1.1//EN'  'http://www.w3.org/Graphics/SVG/1.1/DTD/svg11.dtd'><svg enable-background="new 0 0 32 32" height="32px" id="Layer_1" version="1.1" viewBox="0 0 32 32" width="32px" xml:space="preserve" xmlns="http://www.w3.org/2000/svg" xmlns:xlink="http://www.w3.org/1999/xlink"><g><polyline fill="none" points="   649,137.999 675,137.999 675,155.999 661,155.999  " stroke="#FFFFFF" stroke-linecap="round" stroke-linejoin="round" stroke-miterlimit="10" stroke-width="2"/><polyline fill="none" points="   653,155.999 649,155.999 649,141.999  " stroke="#FFFFFF" stroke-linecap="round" stroke-linejoin="round" stroke-miterlimit="10" stroke-width="2"/><polyline fill="none" points="   661,156 653,162 653,156  " stroke="#FFFFFF" stroke-linecap="round" stroke-linejoin="round" stroke-miterlimit="10" stroke-width="2"/></g><path d="M23.317,10l5.441-6.349c0.255-0.296,0.313-0.714,0.149-1.069C28.745,2.228,28.391,2,28,2H4C3.448,2,3,2.448,3,3s0.448,1,1,1  h21.826l-4.585,5.349c-0.321,0.375-0.321,0.927,0,1.302L25.826,16H7v-4V7c0-0.552-0.448-1-1-1S5,6.448,5,7v5v5v11H4  c-0.552,0-1,0.447-1,1s0.448,1,1,1h4c0.552,0,1-0.447,1-1s-0.448-1-1-1H7V18h21c0.391,0,0.745-0.228,0.908-0.582  s0.105-0.772-0.149-1.069L23.317,10z"/></svg>