<?xml version="1.0" ?><!DOCTYPE svg  PUBLIC '-//W3C//DTD SVG 1.1//EN'  'http://www.w3.org/Graphics/SVG/1.1/DTD/svg11.dtd'><svg enable-background="new 0 0 32 32" height="32px" id="Слой_1" version="1.1" viewBox="0 0 32 32" width="32px" xml:space="preserve" xmlns="http://www.w3.org/2000/svg" xmlns:xlink="http://www.w3.org/1999/xlink"><path clip-rule="evenodd" d="M2,31v-3v-7.455V13h0.025C2.289,6.883,7.318,2,13.5,2  c6.182,0,11.211,4.883,11.475,11H25v7.545V28v0.638l-3.294-3.294c-0.389-0.389-1.025-0.389-1.414,0s-0.389,1.025,0,1.414l4.95,4.95  c0.201,0.201,0.467,0.293,0.732,0.287c0.265,0.007,0.531-0.086,0.732-0.287l4.95-4.95c0.389-0.389,0.389-1.025,0-1.414  s-1.025-0.389-1.414,0L27,28.586V13c0-0.059-0.024-0.109-0.034-0.165C26.617,5.69,20.731,0,13.5,0C6.044,0,0,6.044,0,13.5  c0,0.135,0.016,0.266,0.02,0.401C0.017,13.935,0,13.965,0,14l0,17c0,0.55,0.45,1,1,1S2,31.55,2,31z" fill="#121313" fill-rule="evenodd"/><g/><g/><g/><g/><g/><g/></svg>